<?xml version="1.0" encoding="UTF-8" standalone="no"?>
<!-- Created with Inkscape (http://www.inkscape.org/) -->

<svg
   width="1920"
   height="1080"
   viewBox="0 0 1920 1080"
   version="1.1"
   id="svg5"
   inkscape:version="1.1.2 (b8e25be8, 2022-02-05)"
   sodipodi:docname="icon.svg"
   inkscape:export-filename="/Users/vigneshselvaraj/Sentinel/NiclaSenseME/app/images/icon.png"
   inkscape:export-xdpi="300"
   inkscape:export-ydpi="300"
   xmlns:inkscape="http://www.inkscape.org/namespaces/inkscape"
   xmlns:sodipodi="http://sodipodi.sourceforge.net/DTD/sodipodi-0.dtd"
   xmlns="http://www.w3.org/2000/svg"
   xmlns:svg="http://www.w3.org/2000/svg">
  <sodipodi:namedview
     id="namedview7"
     pagecolor="#ffffff"
     bordercolor="#111111"
     borderopacity="1"
     inkscape:pageshadow="0"
     inkscape:pageopacity="0"
     inkscape:pagecheckerboard="1"
     inkscape:document-units="px"
     showgrid="false"
     inkscape:zoom="0.60625"
     inkscape:cx="571.54639"
     inkscape:cy="559.17526"
     inkscape:window-width="2560"
     inkscape:window-height="1387"
     inkscape:window-x="1728"
     inkscape:window-y="25"
     inkscape:window-maximized="1"
     inkscape:current-layer="layer1" />
  <defs
     id="defs2" />
  <g
     inkscape:label="Layer 1"
     inkscape:groupmode="layer"
     id="layer1">
    <path
       fill="#5290db"
       d="M 1087.5495,220.7732 H 602.20613 c -23.90392,0 -43.46235,19.55844 -43.46235,43.46236 v 485.33959 c 0,23.90392 19.55843,43.46236 43.46235,43.46236 h 485.33957 c 23.9039,0 43.4624,-19.55844 43.4624,-43.46236 V 264.23556 c 0,-23.90392 -19.5547,-43.46236 -43.4586,-43.46236 z"
       id="path824"
       style="fill:#77a377;fill-opacity:1;stroke-width:3.75258" />
    <path
       d="m 672.26305,127.54417 c -5.18231,0 -9.38145,4.19913 -9.38145,9.38144 v 90.76734 c 0,5.18231 4.19914,9.38145 9.38145,9.38145 5.18231,0 9.38144,-4.19914 9.38144,-9.38145 v -90.76734 c 0,-5.18231 -4.19913,-9.38144 -9.38144,-9.38144 z"
       id="path858"
       style="stroke-width:3.75258;fill:#decd87;stroke:#808000" />
    <path
       d="m 787.34334,86.265817 c -5.18231,0 -9.38145,4.199134 -9.38145,9.381443 v 132.04569 c 0,5.18231 4.19914,9.38145 9.38145,9.38145 5.18231,0 9.38144,-4.19914 9.38144,-9.38145 V 95.64726 c 0,-5.182309 -4.20289,-9.381443 -9.38144,-9.381443 z"
       id="path860"
       style="stroke-width:3.75258;fill:#decd87;stroke:#808000" />
    <path
       d="m 902.41988,86.265817 c -5.18231,0 -9.38145,4.199134 -9.38145,9.381443 v 132.04569 c 0,5.18231 4.19914,9.38145 9.38145,9.38145 5.18231,0 9.38144,-4.19914 9.38144,-9.38145 V 95.64726 c 0,-5.182309 -4.19913,-9.381443 -9.38144,-9.381443 z"
       id="path862"
       style="stroke-width:3.75258;fill:#decd87;stroke:#808000" />
    <path
       d="m 1017.5002,127.54417 c -5.1823,0 -9.3815,4.19913 -9.3815,9.38144 v 90.76734 c 0,5.18231 4.1992,9.38145 9.3815,9.38145 5.1823,0 9.3814,-4.19914 9.3814,-9.38145 v -90.76734 c 0,-5.18231 -4.1991,-9.38144 -9.3814,-9.38144 z"
       id="path864"
       style="stroke-width:3.75258;fill:#decd87;stroke:#808000" />
    <path
       d="m 672.26305,795.50295 c -5.18231,0 -9.38145,4.19913 -9.38145,9.38144 v 90.76734 c 0,5.18231 4.19914,9.38144 9.38145,9.38144 5.18231,0 9.38144,-4.19913 9.38144,-9.38144 v -90.76734 c 0,-5.18231 -4.19913,-9.38144 -9.38144,-9.38144 z"
       id="path866"
       style="stroke-width:3.75258;fill:#decd87;stroke:#808000" />
    <path
       d="m 787.34334,795.50295 c -5.18231,0 -9.38145,4.19913 -9.38145,9.38144 v 132.04569 c 0,5.18231 4.19914,9.38145 9.38145,9.38145 5.18231,0 9.38144,-4.19914 9.38144,-9.38145 V 804.88439 c 0,-5.18231 -4.20289,-9.38144 -9.38144,-9.38144 z"
       id="path868"
       style="stroke-width:3.75258;fill:#decd87;stroke:#808000" />
    <path
       d="m 902.41988,795.50295 c -5.18231,0 -9.38145,4.19913 -9.38145,9.38144 v 132.04569 c 0,5.18231 4.19914,9.38145 9.38145,9.38145 5.18231,0 9.38144,-4.19914 9.38144,-9.38145 V 804.88439 c 0,-5.18231 -4.19913,-9.38144 -9.38144,-9.38144 z"
       id="path870"
       style="stroke-width:3.75258;fill:#decd87;stroke:#808000" />
    <path
       d="m 1017.5002,795.50295 c -5.1823,0 -9.3815,4.19913 -9.3815,9.38144 v 90.76734 c 0,5.18231 4.1992,9.38144 9.3815,9.38144 5.1823,0 9.3814,-4.19913 9.3814,-9.38144 v -90.76734 c 0,-5.18231 -4.1991,-9.38144 -9.3814,-9.38144 z"
       id="path872"
       style="stroke-width:3.75258;fill:#decd87;stroke:#808000" />
    <path
       d="m 556.28589,679.52579 h -90.76734 c -5.18231,0 -9.38145,4.19913 -9.38145,9.38144 0,5.18231 4.19914,9.38145 9.38145,9.38145 h 90.76734 c 5.18231,0 9.38144,-4.19914 9.38144,-9.38145 0,-5.18231 -4.19913,-9.38144 -9.38144,-9.38144 z"
       id="path874"
       style="stroke-width:3.75258;fill:#decd87;stroke:#808000" />
    <path
       d="M 556.28589,564.4455 H 424.2402 c -5.18231,0 -9.38145,4.19913 -9.38145,9.38144 0,5.18231 4.19914,9.38144 9.38145,9.38144 h 132.04569 c 5.18231,0 9.38144,-4.19913 9.38144,-9.38144 0,-5.18231 -4.19913,-9.38144 -9.38144,-9.38144 z"
       id="path876"
       style="stroke-width:3.75258;fill:#decd87;stroke:#808000" />
    <path
       d="M 556.28589,449.36896 H 424.2402 c -5.18231,0 -9.38145,4.19913 -9.38145,9.38144 0,5.18231 4.19914,9.38145 9.38145,9.38145 h 132.04569 c 5.18231,0 9.38144,-4.19914 9.38144,-9.38145 0,-5.18231 -4.19913,-9.38144 -9.38144,-9.38144 z"
       id="path878"
       style="stroke-width:3.75258;fill:#decd87;stroke:#808000" />
    <path
       d="m 556.28589,334.28867 h -90.76734 c -5.18231,0 -9.38145,4.19913 -9.38145,9.38144 0,5.18231 4.19914,9.38144 9.38145,9.38144 h 90.76734 c 5.18231,0 9.38144,-4.19913 9.38144,-9.38144 0,-5.18231 -4.19913,-9.38144 -9.38144,-9.38144 z"
       id="path880"
       style="stroke-width:3.75258;fill:#decd87;stroke:#808000" />
    <path
       d="m 1224.2447,679.52579 h -90.7674 c -5.1823,0 -9.3814,4.19913 -9.3814,9.38144 0,5.18231 4.1991,9.38145 9.3814,9.38145 h 90.7674 c 5.1823,0 9.3814,-4.19914 9.3814,-9.38145 0,-5.18231 -4.1991,-9.38144 -9.3814,-9.38144 z"
       id="path882"
       style="stroke-width:3.75258;fill:#decd87;stroke:#808000" />
    <path
       d="m 1265.523,564.4455 h -132.0457 c -5.1823,0 -9.3814,4.19913 -9.3814,9.38144 0,5.18231 4.1991,9.38144 9.3814,9.38144 h 132.0457 c 5.1823,0 9.3815,-4.19913 9.3815,-9.38144 0,-5.18231 -4.1992,-9.38144 -9.3815,-9.38144 z"
       id="path884"
       style="stroke-width:3.75258;fill:#decd87;stroke:#808000" />
    <path
       d="m 1265.523,449.36896 h -132.0457 c -5.1823,0 -9.3814,4.19913 -9.3814,9.38144 0,5.18231 4.1991,9.38145 9.3814,9.38145 h 132.0457 c 5.1823,0 9.3815,-4.19914 9.3815,-9.38145 0,-5.18231 -4.1992,-9.38144 -9.3815,-9.38144 z"
       id="path886"
       style="stroke-width:3.75258;fill:#decd87;stroke:#808000" />
    <path
       d="m 1224.2447,334.28867 h -90.7674 c -5.1823,0 -9.3814,4.19913 -9.3814,9.38144 0,5.18231 4.1991,9.38144 9.3814,9.38144 h 90.7674 c 5.1823,0 9.3814,-4.19913 9.3814,-9.38144 0,-5.18231 -4.1991,-9.38144 -9.3814,-9.38144 z"
       id="path888"
       style="stroke-width:3.75258;fill:#decd87;stroke:#808000" />
    <path
       d="M 1087.5495,220.7732 H 602.21368 c -29.13876,0 -52.84754,23.70503 -52.84754,52.8438 v 485.34335 c 0,29.13876 23.70503,52.84379 52.84754,52.84379 h 485.33962 c 29.1387,0 52.8475,-23.70503 52.8475,-52.84379 V 273.617 c 0,-29.13877 -23.7088,-52.8438 -52.8513,-52.8438 z m 34.0847,538.18715 c 0,18.7929 -15.288,34.0809 -34.0847,34.0809 H 602.21368 c -18.7929,0 -34.08466,-15.288 -34.08466,-34.0809 V 273.617 c 0,-18.79291 15.288,-34.08091 34.08466,-34.08091 h 485.33962 c 18.7929,0 34.0846,15.288 34.0846,34.08091 v 485.34335 z"
       id="path844"
       style="stroke-width:3.75258;fill:#77a377;fill-opacity:1" />
    <rect
       style="fill:#000000;fill-opacity:1;stroke:#000000;stroke-width:2.6603;-inkscape-stroke:none;stop-color:#000000"
       id="rect8068"
       width="245.76826"
       height="208.71982"
       x="721.99933"
       y="411.92877"
       ry="47.835052" />
  </g>
</svg>
